<svg xmlns="http://www.w3.org/2000/svg" data-name="Layer 1" viewBox="0 0 100 125" x="0px" y="0px"><title>Artboard 35</title><path d="M38.77,30.92a2.66,2.66,0,1,1,5.32,0,2.5,2.5,0,0,0,5,0,7.66,7.66,0,1,0-15.32,0,2.5,2.5,0,0,0,5,0Z"/><path d="M62.45,23.26a7.67,7.67,0,0,0-7.66,7.66,2.5,2.5,0,1,0,5,0,2.66,2.66,0,1,1,5.32,0,2.5,2.5,0,1,0,5,0A7.67,7.67,0,0,0,62.45,23.26Z"/><path d="M65.64,40.54a2.5,2.5,0,0,0-3.34,1.17,11.49,11.49,0,0,1-20.74,0,2.5,2.5,0,1,0-4.51,2.17,16.49,16.49,0,0,0,29.75,0A2.5,2.5,0,0,0,65.64,40.54Z"/><path d="M43.56,90a9,9,0,1,0,9-9A9,9,0,0,0,43.56,90Zm12.92,0a4,4,0,1,1-4-4A4,4,0,0,1,56.48,90Z"/><path d="M66.34,1A23.13,23.13,0,0,0,53.11,5.16,22.38,22.38,0,0,0,17.9,20.66a18.78,18.78,0,0,0,6.72,35.69,22.4,22.4,0,0,0,3,9.4A11.28,11.28,0,0,0,47.12,77,22.57,22.57,0,0,0,66.6,65.66,20.37,20.37,0,0,0,87.76,32.73a22.77,22.77,0,0,0,1.68-8.62A23.13,23.13,0,0,0,66.34,1ZM37.72,77A6.29,6.29,0,1,1,44,70.71,6.29,6.29,0,0,1,37.72,77ZM87.8,46.13A15.38,15.38,0,0,1,66.36,60.26a2.5,2.5,0,0,0-3.27,1.28A17.57,17.57,0,0,1,49,71.84c0-.37.06-.75.06-1.13A11.27,11.27,0,0,0,31.08,61.6a17.48,17.48,0,0,1-1.55-7.19v-.15c0-.12,0-.24,0-.36a2.5,2.5,0,0,0-2.66-2.56h-.21c-.23,0-.46,0-.7,0a13.79,13.79,0,0,1-4.86-26.69,2.5,2.5,0,0,0,1.61-2.21A17.38,17.38,0,0,1,51.47,10.22a2.5,2.5,0,0,0,3.24,0A18.1,18.1,0,0,1,84.44,24.11a17.91,17.91,0,0,1-1.89,8A2.5,2.5,0,0,0,83.06,35,15.24,15.24,0,0,1,87.8,46.13Z"/></svg>
