<svg xmlns="http://www.w3.org/2000/svg" data-name="Layer 1" viewBox="0 0 100 125" x="0px" y="0px"><title>29</title><g data-name="Group"><path data-name="Path" d="M21.2,89.8H71.5a11,11,0,0,0,11-11V62.6a1,1,0,0,0-2,0V78.8a9,9,0,0,1-9,9H21.2a9,9,0,0,1-9-9V28.5a9,9,0,0,1,9-9H37.4a1,1,0,0,0,0-2H21.2a11,11,0,0,0-11,11V78.8A11,11,0,0,0,21.2,89.8Z"/><path data-name="Compound Path" d="M87.3,12.7a8.6,8.6,0,0,0-12.1,0L37.7,50.2l-.3.4L34.3,62a3,3,0,0,0,2.9,3.8H38l11.4-3.2.4-.3L87.3,24.8A8.6,8.6,0,0,0,87.3,12.7ZM48.6,60.7,37.4,63.8a1,1,0,0,1-1-.3,1,1,0,0,1-.3-1l3.1-11.1L72.9,17.8l9.3,9.3Zm35-35-9.3-9.3,2.2-2.2a6.6,6.6,0,0,1,9.3,9.3Z"/></g></svg>
